<?xml version="1.0" encoding="UTF-8"?>
<svg id="b" data-name="Capa 2" xmlns="http://www.w3.org/2000/svg" viewBox="0 0 22.81 22.81">
  <defs>
    <style>
      .d {
        opacity: .5;
      }

      .d, .e {
        fill: #ccc;
        stroke-width: 0px;
      }
    </style>
  </defs>
  <g id="c" data-name="Dimensions">
    <g>
      <circle class="d" cx="11.41" cy="11.41" r="11.41"/>
      <path class="e" d="M18.06,10.92c-.06-.08-.9-1.06-2.21-1.96l1.18-.78c.19-.12.24-.37.11-.56-.12-.19-.37-.24-.56-.11l-1.48.98c-1.05-.61-2.32-1.09-3.7-1.09-3.65,0-6.53,3.38-6.65,3.53-.13.16-.14.39-.02.56.07.09.96,1.26,2.35,2.31l-1.3.86c-.19.12-.24.37-.11.56.08.12.21.18.34.18.08,0,.15-.02.22-.07l1.57-1.04c1.03.65,2.26,1.15,3.6,1.15,3.66,0,6.54-3.79,6.66-3.96.12-.17.12-.4-.02-.56ZM5.69,11.22c.74-.77,3.04-2.94,5.71-2.94,1.02,0,1.99.32,2.85.76l-1.57,1.04c-.33-.32-.78-.52-1.27-.52-1,0-1.81.81-1.81,1.81,0,.23.05.46.13.67l-1.82,1.21c-1.04-.73-1.83-1.59-2.2-2.03ZM11.41,14.53c-.99,0-1.94-.34-2.77-.81l1.53-1.01c.32.3.76.48,1.23.48,1,0,1.81-.81,1.81-1.81,0-.22-.04-.42-.11-.62l1.92-1.27c.98.63,1.72,1.35,2.09,1.73-.72.85-3.04,3.31-5.71,3.31Z"/>
    </g>
  </g>
</svg>