<?xml version="1.0" encoding="UTF-8"?>
<svg id="b" data-name="Capa 2" xmlns="http://www.w3.org/2000/svg" viewBox="0 0 22.81 22.81">
  <defs>
    <style>
      .d {
        opacity: .5;
      }

      .d, .e {
        fill: #ccc;
        stroke-width: 0px;
      }
    </style>
  </defs>
  <g id="c" data-name="Dimensions">
    <g>
      <circle class="d" cx="11.41" cy="11.41" r="11.41"/>
      <g>
        <path class="e" d="M18.15,10.91c-.12-.15-3.04-3.58-6.74-3.58s-6.62,3.43-6.74,3.58c-.14.16-.14.4-.02.56.12.16,3.04,4.01,6.76,4.01s6.64-3.85,6.76-4.01c.13-.17.12-.4-.02-.56ZM11.41,14.57c-2.71,0-5.06-2.49-5.79-3.36.75-.79,3.09-2.98,5.79-2.98s5.04,2.19,5.79,2.98c-.73.86-3.08,3.36-5.79,3.36Z"/>
        <circle class="e" cx="11.41" cy="11.38" r="1.84"/>
      </g>
    </g>
  </g>
</svg>